<svg xmlns="http://www.w3.org/2000/svg" xmlns:svg="http://www.w3.org/2000/svg" id="svg151" x="0" y="0" version="1.1" viewBox="0 0 100 125"><g id="g149" data-name="Layer 2" transform="matrix(0.83600318,0,0,0.84436403,8.3635997,8.0630053)" style="stroke-width:1.11881692;stroke-miterlimit:4;stroke-dasharray:none"><path id="path83" d="m 92.087,85.3913 a 1.91314,1.91314 0 0 0 -1.913,1.913 v 2.86957 h -2.86965 a 1.913045,1.913045 0 1 0 0,3.82609 H 92.087 A 1.91314,1.91314 0 0 0 94,92.087 V 87.30435 A 1.91314,1.91314 0 0 0 92.087,85.3913 Z" style="stroke-width:1.11881692;stroke-miterlimit:4;stroke-dasharray:none"/><path id="path85" d="m 73.85,94 h 6.11557 a 1.913045,1.913045 0 1 0 0,-3.82609 H 73.85 A 1.913045,1.913045 0 0 0 73.85,94 Z" style="stroke-width:1.11881692;stroke-miterlimit:4;stroke-dasharray:none"/><path id="path87" d="m 60.3961,94 h 6.11557 a 1.913045,1.913045 0 0 0 0,-3.82609 H 60.3961 a 1.913045,1.913045 0 0 0 0,3.82609 z" style="stroke-width:1.11881692;stroke-miterlimit:4;stroke-dasharray:none"/><path id="path89" d="m 33.48832,94 h 6.11558 a 1.913045,1.913045 0 0 0 0,-3.82609 h -6.11558 a 1.913045,1.913045 0 0 0 0,3.82609 z" style="stroke-width:1.11881692;stroke-miterlimit:4;stroke-dasharray:none"/><path id="path91" d="m 46.94221,94 h 6.11557 a 1.913045,1.913045 0 1 0 0,-3.82609 H 51.913 v -2.86956 a 1.913045,1.913045 0 1 0 -3.82609,0 v 2.86957 h -1.1447 a 1.913045,1.913045 0 1 0 0,3.82609 z" style="stroke-width:1.11881692;stroke-miterlimit:4;stroke-dasharray:none"/><path id="path93" d="m 26.14954,90.17391 h -6.11511 a 1.913045,1.913045 0 0 0 0,3.82609 h 6.11511 a 1.913045,1.913045 0 1 0 0,-3.82609 z" style="stroke-width:1.11881692;stroke-miterlimit:4;stroke-dasharray:none"/><path id="path95" d="m 7.913,94 h 4.78261 a 1.913045,1.913045 0 1 0 0,-3.82609 H 9.82609 V 87.30435 A 1.913045,1.913045 0 1 0 6,87.30435 V 92.087 A 1.91314,1.91314 0 0 0 7.913,94 Z" style="stroke-width:1.11881692;stroke-miterlimit:4;stroke-dasharray:none"/><path id="path97" d="m 7.913,81.87908 a 1.91314,1.91314 0 0 0 1.913,-1.913 v -6.11562 a 1.913045,1.913045 0 1 0 -3.82609,0 V 79.966 A 1.91314,1.91314 0 0 0 7.913,81.87908 Z" style="stroke-width:1.11881692;stroke-miterlimit:4;stroke-dasharray:none"/><path id="path99" d="m 7.913,68.42519 a 1.91314,1.91314 0 0 0 1.913,-1.913 v -6.11562 a 1.913045,1.913045 0 0 0 -3.82609,0 v 6.11557 A 1.91314,1.91314 0 0 0 7.913,68.42519 Z" style="stroke-width:1.11881692;stroke-miterlimit:4;stroke-dasharray:none"/><path id="path101" d="m 7.913,54.97036 a 1.91314,1.91314 0 0 0 1.913,-1.913 V 51.913 h 2.86957 a 1.913045,1.913045 0 1 0 0,-3.82609 H 9.82609 v -1.14516 a 1.913045,1.913045 0 0 0 -3.82609,0 v 6.11557 a 1.91314,1.91314 0 0 0 1.913,1.91304 z" style="stroke-width:1.11881692;stroke-miterlimit:4;stroke-dasharray:none"/><path id="path103" d="m 7.913,41.51647 a 1.91314,1.91314 0 0 0 1.913,-1.913 v -6.11561 a 1.913045,1.913045 0 1 0 -3.82609,0 v 6.11557 A 1.91314,1.91314 0 0 0 7.913,41.51647 Z" style="stroke-width:1.11881692;stroke-miterlimit:4;stroke-dasharray:none"/><path id="path105" d="m 7.913,28.06258 a 1.91314,1.91314 0 0 0 1.913,-1.913 V 20.034 a 1.913,1.913 0 1 0 -3.826,0 v 6.11557 a 1.91314,1.91314 0 0 0 1.913,1.91301 z" style="stroke-width:1.11881692;stroke-miterlimit:4;stroke-dasharray:none"/><path id="path107" d="m 7.913,14.6087 a 1.91314,1.91314 0 0 0 1.913,-1.913 V 9.82609 h 2.86957 A 1.913045,1.913045 0 1 0 12.69557,6 H 7.913 A 1.91314,1.91314 0 0 0 6,7.913 v 4.78261 a 1.91314,1.91314 0 0 0 1.913,1.91309 z" style="stroke-width:1.11881692;stroke-miterlimit:4;stroke-dasharray:none"/><path id="path109" d="M 33.48832,9.82609 H 39.6039 A 1.913045,1.913045 0 1 0 39.6039,6 h -6.11558 a 1.913045,1.913045 0 1 0 0,3.82609 z" style="stroke-width:1.11881692;stroke-miterlimit:4;stroke-dasharray:none"/><path id="path111" d="m 26.15,6 h -6.11557 a 1.913045,1.913045 0 1 0 0,3.82609 H 26.15 A 1.913045,1.913045 0 1 0 26.15,6 Z" style="stroke-width:1.11881692;stroke-miterlimit:4;stroke-dasharray:none"/><path id="path113" d="m 60.3961,9.82609 h 6.11557 A 1.913045,1.913045 0 1 0 66.51167,6 H 60.3961 a 1.913045,1.913045 0 1 0 0,3.82609 z" style="stroke-width:1.11881692;stroke-miterlimit:4;stroke-dasharray:none"/><path id="path115" d="m 73.85046,9.82609 h 6.11511 a 1.913045,1.913045 0 1 0 0,-3.82609 h -6.11511 a 1.913045,1.913045 0 1 0 0,3.82609 z" style="stroke-width:1.11881692;stroke-miterlimit:4;stroke-dasharray:none"/><path id="path117" d="m 92.087,6 h -4.78265 a 1.913045,1.913045 0 1 0 0,3.82609 h 2.86957 v 2.86957 a 1.913045,1.913045 0 1 0 3.82609,0 V 7.913 A 1.91314,1.91314 0 0 0 92.087,6 Z" style="stroke-width:1.11881692;stroke-miterlimit:4;stroke-dasharray:none"/><path id="path119" d="m 92.087,31.57481 a 1.91314,1.91314 0 0 0 -1.913,1.913 v 6.11557 a 1.913045,1.913045 0 0 0 3.82609,0 V 33.48786 A 1.91314,1.91314 0 0 0 92.087,31.57481 Z" style="stroke-width:1.11881692;stroke-miterlimit:4;stroke-dasharray:none"/><path id="path121" d="m 92.087,18.12092 a 1.91314,1.91314 0 0 0 -1.913,1.913 v 6.11557 a 1.913045,1.913045 0 1 0 3.82609,0 V 20.034 A 1.91314,1.91314 0 0 0 92.087,18.12092 Z" style="stroke-width:1.11881692;stroke-miterlimit:4;stroke-dasharray:none"/><path id="path123" d="m 92.087,71.93742 a 1.91314,1.91314 0 0 0 -1.913,1.913 V 79.966 a 1.913,1.913 0 1 0 3.826,0 v -6.11554 a 1.91314,1.91314 0 0 0 -1.913,-1.91304 z" style="stroke-width:1.11881692;stroke-miterlimit:4;stroke-dasharray:none"/><path id="path125" d="m 92.087,58.48353 a 1.91314,1.91314 0 0 0 -1.913,1.913 v 6.11557 a 1.913045,1.913045 0 0 0 3.82609,0 V 60.39657 A 1.91314,1.91314 0 0 0 92.087,58.48353 Z" style="stroke-width:1.11881692;stroke-miterlimit:4;stroke-dasharray:none"/><path id="path127" d="m 92.087,45.02964 a 1.91314,1.91314 0 0 0 -1.913,1.913 V 48.087 h -2.86965 a 1.913045,1.913045 0 1 0 0,3.82609 h 2.86957 v 1.14521 a 1.913045,1.913045 0 0 0 3.82609,0 V 46.94268 A 1.91314,1.91314 0 0 0 92.087,45.02964 Z" style="stroke-width:1.11881692;stroke-miterlimit:4;stroke-dasharray:none"/><path id="path129" d="m 51.913,9.82609 h 1.14474 a 1.913045,1.913045 0 1 0 0,-3.82609 h -6.11553 a 1.913045,1.913045 0 1 0 0,3.82609 H 48.087 v 2.86957 a 1.913045,1.913045 0 1 0 3.82609,0 z" style="stroke-width:1.11881692;stroke-miterlimit:4;stroke-dasharray:none"/><path id="path131" d="m 51.913,20.034 a 1.913045,1.913045 0 1 0 -3.82609,0 v 6.11557 a 1.913045,1.913045 0 1 0 3.82609,0 z" style="stroke-width:1.11881692;stroke-miterlimit:4;stroke-dasharray:none"/><path id="path133" d="m 50,31.57481 a 1.91314,1.91314 0 0 0 -1.913,1.913 v 6.11557 a 1.913045,1.913045 0 0 0 3.82609,0 V 33.48786 A 1.91314,1.91314 0 0 0 50,31.57481 Z" style="stroke-width:1.11881692;stroke-miterlimit:4;stroke-dasharray:none"/><path id="path135" d="m 50,71.93742 a 1.91314,1.91314 0 0 0 -1.913,1.913 V 79.966 a 1.913045,1.913045 0 1 0 3.82609,0 V 73.85046 A 1.91314,1.91314 0 0 0 50,71.93742 Z" style="stroke-width:1.11881692;stroke-miterlimit:4;stroke-dasharray:none"/><path id="path137" d="m 51.913,60.39657 a 1.913045,1.913045 0 0 0 -3.82609,0 v 6.11557 a 1.913045,1.913045 0 0 0 3.82609,0 z" style="stroke-width:1.11881692;stroke-miterlimit:4;stroke-dasharray:none"/><path id="path139" d="m 73.85,51.913 h 6.11557 a 1.913045,1.913045 0 1 0 0,-3.82609 H 73.85 a 1.913045,1.913045 0 0 0 0,3.82609 z" style="stroke-width:1.11881692;stroke-miterlimit:4;stroke-dasharray:none"/><path id="path141" d="m 60.3961,51.913 h 6.11557 a 1.913045,1.913045 0 0 0 0,-3.82609 H 60.3961 a 1.913045,1.913045 0 0 0 0,3.82609 z" style="stroke-width:1.11881692;stroke-miterlimit:4;stroke-dasharray:none"/><path id="path143" d="m 26.14954,48.087 h -6.11511 a 1.913045,1.913045 0 0 0 0,3.82609 h 6.11511 a 1.913045,1.913045 0 1 0 0,-3.82609 z" style="stroke-width:1.11881692;stroke-miterlimit:4;stroke-dasharray:none"/><path id="path145" d="M 46.94221,51.913 H 48.087 v 1.14521 a 1.913045,1.913045 0 0 0 3.82609,0 V 51.913 h 1.14474 a 1.913045,1.913045 0 1 0 0,-3.82609 H 51.913 v -1.14423 a 1.913045,1.913045 0 1 0 -3.82609,0 V 48.087 h -1.1447 a 1.913045,1.913045 0 1 0 0,3.82609 z" style="stroke-width:1.11881692;stroke-miterlimit:4;stroke-dasharray:none"/><path id="path147" d="m 33.48832,51.913 h 6.11558 a 1.913045,1.913045 0 0 0 0,-3.82609 h -6.11558 a 1.913045,1.913045 0 0 0 0,3.82609 z" style="stroke-width:1.11881692;stroke-miterlimit:4;stroke-dasharray:none"/></g><rect style="fill:none;fill-rule:evenodd;stroke:#fff;stroke-width:4.78857;stroke-miterlimit:4;stroke-dasharray:none;stroke-opacity:1" id="rect259" width="83.675" height="84.667" x="8.243" y="7.715"/></svg>