<svg xmlns="http://www.w3.org/2000/svg" xmlns:xlink="http://www.w3.org/1999/xlink" x="0" y="0" version="1.1" viewBox="0 0 29 37.5" xml:space="preserve"><g><g xmlns="http://www.w3.org/2000/svg" xmlns:xlink="http://www.w3.org/1999/xlink" transform="translate(-390 -740)"><rect width="1" height="3" x="404" y="744"/><rect width="1" height="3" x="404" y="748"/><rect width="1" height="3" x="404" y="752"/><rect width="1" height="3" x="404" y="756"/><rect width="1" height="3" x="404" y="760"/><rect width="1" height="3" x="404" y="764"/><polygon points="393 746 402 746 402 745 392 745 392 766 402 766 402 765 393 765"/><rect width="8" height="17" x="394" y="747"/><polygon points="416 765 407 765 407 766 417 766 417 745 407 745 407 746 416 746"/><rect width="8" height="17" x="407" y="747"/></g></g></svg>