<svg xmlns="http://www.w3.org/2000/svg" viewBox="0 0 128 160"><path d="M120 28H8c-4.4 0-8 3.6-8 8v32c0 4.4 3.6 8 8 8h81.264l-.955-4H8c-2.206 0-4-1.794-4-4V36c0-2.206 1.794-4 4-4h112c2.206 0 4 1.794 4 4v32a4 4 0 0 1-3.132 3.898l.358.109a5.976 5.976 0 0 1 3.32 2.56C126.629 73.119 128 70.714 128 68V36c0-4.4-3.6-8-8-8z"/><path d="M114.174 81.744l5.973-2.11a1.998 1.998 0 0 0-.084-3.799l-25.48-7.748a1.997 1.997 0 0 0-2.527 2.378l5.773 24.184a2 2 0 0 0 3.701.495l3.009-5.509 9.558 9.766a2 2 0 0 0 2.711.137l6.476-5.4a2.006 2.006 0 0 0 .149-2.936l-9.259-9.458zm1.488 13.537l-10.156-10.377a2.002 2.002 0 0 0-3.184.44l-1.811 3.315-3.756-15.732 16.32 4.963-3.189 1.127a2.003 2.003 0 0 0-.763 3.286l9.934 10.148-3.395 2.83z"/></svg>