<svg xmlns="http://www.w3.org/2000/svg" viewBox="0 0 91 113.75"><path d="M72.532 23.89c0-6.473-5.268-11.738-11.74-11.738-6.475 0-11.742 5.266-11.742 11.738 0 6.474 5.268 11.741 11.742 11.741 6.473 0 11.74-5.268 11.74-11.741zm-18.457 0c0-3.702 3.012-6.713 6.717-6.713a6.721 6.721 0 0 1 6.715 6.713 6.723 6.723 0 0 1-6.715 6.716 6.724 6.724 0 0 1-6.717-6.716z"/><path d="M85.147 43.286a2.511 2.511 0 0 0-2.467-2.039h-6.699c3.91-5.771 7.143-12.013 7.143-16.882 0-12.319-10.018-22.341-22.332-22.341-12.318 0-22.338 10.021-22.338 22.341 0 4.869 3.232 11.109 7.143 16.882l-33.711-.006H8.94a2.512 2.512 0 0 0-2.484 2.137L.706 81.473a2.51 2.51 0 0 0 .58 2.014 2.51 2.51 0 0 0 1.904.875h77.092c5.881 0 10.664-4.783 10.664-10.66 0-.158-.016-.316-.045-.473l-5.754-29.943zM43.479 24.365c0-9.548 7.766-17.315 17.313-17.315 9.543 0 17.307 7.768 17.307 17.315 0 4.576-4.357 11.669-9.117 17.987l-.004.004a142.485 142.485 0 0 1-8.186 9.858c-6.111-6.703-17.313-20.512-17.313-27.849zm5.756 21.907c4.445 5.79 8.789 10.372 9.746 11.366a2.515 2.515 0 0 0 3.62 0c.957-.994 5.299-5.576 9.744-11.366h8.26l3.037 15.812c-.084.047-.172.088-.252.146l-7.904 5.709-51.223-21.67 24.972.003zM6.11 79.336l4.992-33.069h.258l18.266 7.728L7.843 79.336H6.11zm8.36 0l20.016-23.287 36.236 15.33-11.018 7.957H14.47zm65.812 0H68.288l16.395-11.84 1.234 6.424a5.643 5.643 0 0 1-5.635 5.416z"/></svg>