<svg xmlns="http://www.w3.org/2000/svg" xmlns:svg="http://www.w3.org/2000/svg" id="svg827" width="24" height="24" preserveAspectRatio="none" version="1.1" viewBox="0 0 24 24"><defs id="defs831"><clipPath id="clipPath10462" clipPathUnits="userSpaceOnUse"><rect style="display:block;fill:#32373c;fill-opacity:.477856;stroke:none;stroke-width:3;stroke-miterlimit:4;stroke-dasharray:none;stroke-opacity:1" id="rect10464" width="16.417" height="15.96" x="23.682" y="9.014"/></clipPath></defs><rect style="fill:none;fill-opacity:1;stroke:#32373c;stroke-width:.898842;stroke-miterlimit:4;stroke-dasharray:none;stroke-opacity:1" id="rect912" width="17.353" height="16.483" x="3.644" y="3.91"/><path id="rect1104" d="M 3.9387578,4.0168828 V 13.62921 H 20.89132 V 4.0168828 Z" style="fill:#32373c;fill-opacity:1;stroke:#32373c;stroke-width:1.0096;stroke-miterlimit:4;stroke-dasharray:none;stroke-opacity:1"/><path style="fill:#32373c;fill-opacity:1;stroke-width:0" id="path920" d="m 5.8222534,17.889124 -1.1512196,-1.951576 -1.1512195,-1.951576 2.2657241,-0.0212 2.265724,-0.0212 -1.1145045,1.972774 z"/><path style="fill:#32373c;fill-opacity:1;stroke-width:0" id="path920-8" d="m 5.8222534,17.889124 -1.1512196,-1.951576 -1.1512195,-1.951576 2.2657241,-0.0212 2.265724,-0.0212 -1.1145045,1.972774 z" transform="translate(4.5314482,-0.04239487)"/><path style="fill:#32373c;fill-opacity:1;stroke-width:0" id="path920-8-2" d="m 5.8222534,17.889124 -1.1512196,-1.951576 -1.1512195,-1.951576 2.2657241,-0.0212 2.265724,-0.0212 -1.1145045,1.972774 z" transform="translate(9.0628964,-0.08478974)"/><path style="fill:#32373c;fill-opacity:1;stroke-width:0" id="path920-8-0" d="m 5.8222534,17.889124 -1.1512196,-1.951576 -1.1512195,-1.951576 2.2657241,-0.0212 2.265724,-0.0212 -1.1145045,1.972774 z" transform="translate(13.283442,-0.2515457)"/></svg>